<svg width="308" height="308" viewBox="0 0 308 308" fill="none" xmlns="http://www.w3.org/2000/svg">
<rect width="308" height="308" fill="white"/>
<path d="M55.35 109.45H61.35L97.8 173.95L134.1 109.45H139.65V213.85H55.35L55.35 109.45ZM60.9 208.45H134.1V120.7L100.35 180.1H95.1L60.9 119.8L60.9 208.45ZM171.035 214L171.035 109.6L209.885 109.6C217.485 109.6 224.485 111.5 230.885 115.3C237.385 119.1 242.535 124.25 246.335 130.75C250.135 137.15 252.035 144.15 252.035 151.75V171.85C252.035 179.45 250.135 186.5 246.335 193C242.535 199.4 237.385 204.5 230.885 208.3C224.485 212.1 217.485 214 209.885 214H171.035Z" fill="black"/>
</svg>
